Coordinates
version=1
nRows=49
nColumns=12
inDegrees=yes

Units are S.I. units (second, meters, Newtons, ...)
Angles are in degrees

endheader
time	SC_y	SC_z	SC_x	AC_y	AC_z	AC_x	GH_y	GH_z	GH_yy	EL_x	PS_y
       0.0              -40.06           27.5          75.28          36.56         -18.95         -7.448          75.83           82.7         -84.18          9.058          14.18
   0.03832              -40.06           27.5          75.28          36.56         -18.95         -7.449          75.82          82.69         -84.15          9.058           14.2
   0.07665              -40.06           27.5          75.27          36.56         -18.95         -7.449          75.81          82.67         -84.11          9.059          14.22
     0.115              -40.06           27.5          75.27          36.57         -18.95         -7.449          75.79          82.66         -84.08           9.06          14.24
    0.1533              -40.06           27.5          75.26          36.57         -18.95          -7.45          75.78          82.65         -84.04           9.06          14.26
    0.1916              -40.06           27.5          75.25          36.57         -18.95          -7.45          75.76          82.64         -84.01          9.061          14.28
    0.2299              -40.07           27.5          75.25          36.57         -18.95         -7.451          75.74          82.62         -83.97          9.062          14.31
    0.2683              -40.07           27.5          75.24          36.57         -18.95         -7.451          75.72          82.61         -83.92          9.063          14.34
    0.3066              -40.07           27.5          75.23          36.58         -18.95         -7.452           75.7          82.59         -83.88          9.064          14.36
    0.3449              -40.07           27.5          75.22          36.58         -18.95         -7.453          75.68          82.57         -83.83          9.065           14.4
    0.3832              -40.07           27.5          75.22          36.58         -18.95         -7.453          75.66          82.55         -83.77          9.066          14.43
    0.4216              -40.07           27.5          75.21          36.58         -18.95         -7.454          75.63          82.53         -83.71          9.067          14.46
    0.4599              -40.07           27.5          75.19          36.59         -18.95         -7.455           75.6          82.51         -83.65          9.068           14.5
    0.4982              -40.07           27.5          75.18          36.59         -18.95         -7.456          75.57          82.49         -83.58          9.069          14.55
    0.5365              -40.08          27.49          75.17           36.6         -18.95         -7.457          75.54          82.46         -83.51          9.071          14.59
    0.5749              -40.08          27.49          75.16           36.6         -18.95         -7.458          75.51          82.43         -83.43          9.072          14.64
    0.6132              -40.08          27.49          75.14           36.6         -18.95         -7.459          75.47           82.4         -83.35          9.074          14.69
    0.6515              -40.08          27.49          75.13          36.61         -18.95          -7.46          75.43          82.37         -83.25          9.076          14.75
    0.6898              -40.08          27.49          75.11          36.62         -18.94         -7.461          75.38          82.33         -83.15          9.078          14.81
    0.7282              -40.09          27.49          75.09          36.62         -18.94         -7.463          75.34          82.29         -83.04           9.08          14.88
    0.7665              -40.09          27.49          75.07          36.63         -18.94         -7.464          75.28          82.25         -82.92          9.082          14.96
    0.8048              -40.09          27.49          75.05          36.63         -18.94         -7.466          75.22           82.2         -82.78          9.085          15.04
    0.8431               -40.1          27.49          75.02          36.64         -18.94         -7.468          75.16          82.14         -82.63          9.088          15.14
    0.8815               -40.1          27.49          74.99          36.65         -18.94          -7.47          75.09          82.08         -82.47          9.091          15.24
    0.9198              -40.11          27.49          74.96          36.66         -18.94         -7.472           75.0          82.02         -82.28          9.095          15.35
    0.9581              -40.11          27.49          74.93          36.67         -18.93         -7.475          74.92          81.95         -82.08          9.099          15.48
    0.9964              -40.12          27.48          74.89          36.69         -18.93         -7.478          74.81          81.86         -81.85          9.103          15.62
     1.035              -40.12          27.48          74.85           36.7         -18.93         -7.481           74.7          81.77         -81.59          9.108          15.78
     1.073              -40.13          27.48           74.8          36.71         -18.93         -7.485          74.57          81.67          -81.3          9.114          15.96
     1.111              -40.14          27.48          74.74          36.73         -18.92         -7.489          74.43          81.55         -80.97           9.12          16.17
      1.15              -40.15          27.48          74.68          36.75         -18.92         -7.494          74.26          81.41         -80.59          9.128           16.4
     1.188              -40.16          27.47           74.6          36.78         -18.92         -7.499          74.07          81.26         -80.15          9.136          16.67
     1.226              -40.17          27.47          74.52           36.8         -18.91         -7.506          73.85          81.08         -79.65          9.146          16.98
     1.265              -40.18          27.47          74.42          36.83         -18.91         -7.513           73.6          80.87         -79.07          9.157          17.34
     1.303               -40.2          27.46          74.31          36.87          -18.9         -7.522           73.3          80.62         -78.39          9.171          17.77
     1.341              -40.22          27.46          74.17          36.91         -18.89         -7.532          72.95          80.33         -77.59          9.186          18.26
      1.38              -40.24          27.45          74.01          36.97         -18.88         -7.544          72.53          79.99         -76.63          9.205          18.86
     1.418              -40.27          27.44          73.82          37.03         -18.87         -7.559          72.03          79.58         -75.49          9.227          19.57
     1.456               -40.3          27.43          73.58           37.1         -18.86         -7.577          71.42          79.08          -74.1          9.254          20.43
     1.495              -40.34          27.42           73.3          37.19         -18.84         -7.598          70.68          78.48         -72.41          9.287          21.47
     1.533              -40.39          27.41          72.94          37.31         -18.82         -7.625          69.77          77.73         -70.32          9.328          22.77
     1.571              -40.45          27.39           72.5          37.45          -18.8         -7.658          68.63           76.8         -67.72          9.379          24.38
      1.61              -40.53          27.37          71.95          37.62         -18.77           -7.7          67.19          75.62         -64.44          9.443          26.42
     1.648              -40.63          27.34          71.25          37.85         -18.73         -7.753          65.37          74.13         -60.27          9.524           29.0
     1.686              -40.75           27.3          70.34          38.13         -18.67         -7.821          63.03          72.21         -54.93          9.628          32.31
     1.725              -40.92          27.26          69.19           38.5         -18.61         -7.908          60.04          69.76         -48.08          9.761          36.56
     1.763              -41.13           27.2          67.71          38.97         -18.52          -8.02          56.21          66.62         -39.34          9.932          41.98
     1.801              -41.39          27.13          65.85          39.57         -18.42          -8.16          51.39          62.68         -28.34          10.15           48.8
      1.84               -41.7          27.04          63.59          40.29         -18.29         -8.331          45.53          57.87         -14.93          10.41          57.11
